<svg width="109" height="109" viewBox="0 0 109 109" fill="none" xmlns="http://www.w3.org/2000/svg">
<path d="M101.139 0H7.86115C3.51935 0 0 3.51935 0 7.86115V101.139C0 105.481 3.51935 109 7.86115 109H101.139C105.481 109 109 105.481 109 101.139V7.86115C109 3.51935 105.481 0 101.139 0ZM38.6629 82.3887H25.3897V42.4559H38.6629V82.3887ZM32.0267 37.0031H31.9402C27.4862 37.0031 24.6055 33.9369 24.6055 30.1049C24.6055 26.1864 27.5743 23.2051 32.1149 23.2051C36.6554 23.2051 39.4496 26.1864 39.5361 30.1049C39.5361 33.9369 36.6554 37.0031 32.0267 37.0031ZM86.5234 82.3887H73.2518V61.0256C73.2518 55.6568 71.33 51.9952 66.5275 51.9952C62.8609 51.9952 60.6772 54.4651 59.7175 56.8493C59.3665 57.7025 59.2809 58.895 59.2809 60.0884V82.3887H46.0085C46.0085 82.3887 46.1823 46.2023 46.0085 42.4559H59.2809V48.11C61.0447 45.3889 64.2007 41.5187 71.2427 41.5187C79.9754 41.5187 86.5234 47.226 86.5234 59.4913V82.3887Z" fill="white"/>
</svg>
