<svg width="114" height="114" viewBox="0 0 114 114" fill="none" xmlns="http://www.w3.org/2000/svg">
<path d="M57.0004 0C25.6926 0 0 25.6924 0 57C0 83.7161 18.7468 107.985 43.641 114V95.1421C41.1743 95.6822 38.9043 95.6978 36.3933 94.9577C33.0247 93.9635 30.2876 91.7196 28.2558 88.298C26.9607 86.1132 24.6655 83.744 22.271 83.9179L21.6839 77.2643C26.8616 76.8208 31.3408 80.4189 33.9997 84.886C35.1808 86.8725 36.5403 88.0371 38.285 88.552C39.9715 89.0486 41.7823 88.8103 43.8923 88.0649C44.422 83.8405 46.3572 82.2593 47.8193 80.0327V80.0293C32.9725 77.8149 27.0555 69.9384 24.7072 63.7214C21.5952 55.4666 23.2651 45.154 28.7681 38.6369C28.8751 38.51 29.0682 38.1777 28.9934 37.9455C26.4702 30.3239 29.5448 24.019 29.6579 23.3502C32.5698 24.2113 33.043 22.4839 42.3067 28.1121L43.908 29.074C44.5777 29.4733 44.3672 29.2454 45.0369 29.1949C48.9047 28.1443 52.9822 27.5641 56.9996 27.512C61.0474 27.5641 65.0987 28.1443 69.1266 29.2375L69.645 29.2897C69.5997 29.2828 69.7859 29.2567 70.0981 29.0706C81.6702 22.0612 81.2545 24.3522 84.3578 23.3432C84.47 24.013 87.5037 30.4204 85.0075 37.9455C84.6709 38.9822 95.0402 48.4773 89.2928 63.7188C86.9445 69.9384 81.0284 77.8149 66.1816 80.0293V80.0327C68.0846 82.9334 70.3712 84.4763 70.359 90.4602V114C95.2541 107.985 114 83.7161 114 57C114.001 25.6924 88.3082 0 57.0004 0Z" fill="white"/>
</svg>
