<svg width="132" height="103" viewBox="0 0 132 103" fill="none" xmlns="http://www.w3.org/2000/svg">
<path d="M121.476 0H9.63274C7.79686 0 6.07813 0.45135 4.52319 1.19529L65.2894 61.9615L78.9091 48.8724C78.9091 48.8724 78.9102 48.8711 78.9104 48.8705C78.9107 48.87 78.9117 48.8695 78.9117 48.8695L126.588 1.19635C125.032 0.451879 123.313 0 121.476 0Z" fill="white"/>
<path d="M130.806 6.78467L85.9409 51.6476L130.805 96.5114C131.549 94.9565 132 93.2377 132 91.4019V11.8924C132 10.0575 131.55 8.33908 130.806 6.78467Z" fill="white"/>
<path d="M1.19529 6.78467C0.451349 8.33961 0 10.0583 0 11.8942V91.4037C0 93.2385 0.450819 94.9575 1.19423 96.5119L46.0596 51.649L1.19529 6.78467Z" fill="white"/>
<path d="M81.7237 56.5406L68.1022 69.6313C67.3256 70.4078 66.3084 70.7961 65.2915 70.7961C64.2746 70.7961 63.2571 70.4078 62.4808 69.6313L49.3893 56.54L4.52319 101.403C6.0784 102.148 7.79819 102.6 9.63459 102.6H121.478C123.314 102.6 125.033 102.148 126.587 101.404L81.7237 56.5406Z" fill="white"/>
</svg>
