<svg width="109" height="109" viewBox="0 0 109 109" fill="none" xmlns="http://www.w3.org/2000/svg">
<path d="M47.7119 64.7104L65.44 54.5L47.7119 44.2896V64.7104Z" fill="white"/>
<path d="M54.5 0C24.4051 0 0 24.4051 0 54.5C0 84.5949 24.4051 109 54.5 109C84.5949 109 109 84.5949 109 54.5C109 24.4051 84.5949 0 54.5 0ZM88.5542 54.5557C88.5542 54.5557 88.5542 65.6086 87.1521 70.9383C86.3662 73.8556 84.066 76.1558 81.1488 76.9408C75.819 78.3438 54.5 78.3438 54.5 78.3438C54.5 78.3438 33.2367 78.3438 27.8512 76.8851C24.934 76.1001 22.6338 73.799 21.8479 70.8818C20.445 65.6086 20.445 54.5 20.445 54.5C20.445 54.5 20.445 43.448 21.8479 38.1182C22.6329 35.201 24.9897 32.8442 27.8512 32.0592C33.181 30.6562 54.5 30.6562 54.5 30.6562C54.5 30.6562 75.819 30.6562 81.1488 32.1149C84.066 32.8999 86.3662 35.201 87.1521 38.1182C88.6107 43.448 88.5542 54.5557 88.5542 54.5557Z" fill="white"/>
</svg>
