<svg width="36" height="35" viewBox="0 0 36 35" fill="none" xmlns="http://www.w3.org/2000/svg">
<path d="M26.4375 2.05078C24.484 2.05078 22.693 2.65262 21.1144 3.83961C19.6009 4.97759 18.5932 6.42701 18 7.48098C17.4068 6.42694 16.3991 4.97759 14.8856 3.83961C13.307 2.65262 11.516 2.05078 9.5625 2.05078C4.11103 2.05078 0 6.38593 0 12.1347C0 18.3455 5.1288 22.5948 12.8931 29.0276C14.2116 30.12 15.7061 31.3583 17.2595 32.6789C17.4642 32.8532 17.7272 32.9492 18 32.9492C18.2728 32.9492 18.5358 32.8532 18.7405 32.679C20.294 31.3582 21.7884 30.12 23.1077 29.0269C30.8712 22.5948 36 18.3455 36 12.1347C36 6.38593 31.889 2.05078 26.4375 2.05078Z" fill="black"/>
</svg>
