<svg width="400" height="400" viewBox="0 0 400 400" fill="none" xmlns="http://www.w3.org/2000/svg">
<path d="M39.2949 107.217L200 14.4338L360.705 107.217V292.783L200 385.566L39.2949 292.783V107.217Z" stroke="url(#paint0_linear)" stroke-width="25"/>
<path d="M62.5775 301.888C73.7135 309.568 87.4415 313.408 103.762 313.408C116.05 313.408 125.746 311.2 132.85 306.784C140.146 302.176 145.618 295.744 149.266 287.488C153.106 279.04 155.602 268.768 156.754 256.672C157.906 244.576 158.482 230.848 158.482 215.488V111.52H164.242V215.488C164.242 231.04 163.57 245.248 162.226 258.112C161.074 270.784 158.386 281.632 154.162 290.656C149.938 299.68 143.794 306.688 135.73 311.68C127.858 316.672 117.202 319.168 103.762 319.168C86.4815 319.168 71.6975 314.944 59.4095 306.496L62.5775 301.888Z" fill="url(#paint1_linear)"/>
<path d="M62.5775 301.888L66.5516 296.126L60.7807 292.146L56.8092 297.922L62.5775 301.888ZM132.85 306.784L136.545 312.729L136.566 312.716L136.587 312.702L132.85 306.784ZM149.266 287.488L142.893 284.591L142.878 284.625L142.863 284.659L149.266 287.488ZM156.754 256.672L163.722 257.336L156.754 256.672ZM158.481 111.52V104.52H151.481V111.52H158.481ZM164.242 111.52H171.242V104.52H164.242V111.52ZM162.226 258.112L155.263 257.385L155.259 257.431L155.254 257.478L162.226 258.112ZM154.162 290.656L160.501 293.624L154.162 290.656ZM135.729 311.68L132.045 305.728L132.013 305.748L131.981 305.768L135.729 311.68ZM59.4095 306.496L53.6412 302.53L49.6755 308.299L55.4438 312.264L59.4095 306.496ZM58.6034 307.65C71.1313 316.29 86.3199 320.408 103.762 320.408V306.408C88.5631 306.408 76.2957 302.846 66.5516 296.126L58.6034 307.65ZM103.762 320.408C116.78 320.408 127.928 318.086 136.545 312.729L129.154 300.839C123.563 304.314 115.319 306.408 103.762 306.408V320.408ZM136.587 312.702C145.115 307.317 151.486 299.783 155.668 290.317L142.863 284.659C139.749 291.705 135.176 297.035 129.112 300.866L136.587 312.702ZM155.638 290.385C159.881 281.05 162.518 269.979 163.722 257.336L149.785 256.008C148.685 267.557 146.33 277.03 142.893 284.591L155.638 290.385ZM163.722 257.336C164.9 244.971 165.481 231.015 165.481 215.488H151.481C151.481 230.681 150.911 244.181 149.785 256.008L163.722 257.336ZM165.481 215.488V111.52H151.481V215.488H165.481ZM158.481 118.52H164.242V104.52H158.481V118.52ZM157.242 111.52V215.488H171.242V111.52H157.242ZM157.242 215.488C157.242 230.844 156.578 244.805 155.263 257.385L169.188 258.839C170.561 245.691 171.242 231.236 171.242 215.488H157.242ZM155.254 257.478C154.156 269.555 151.621 279.572 147.822 287.688L160.501 293.624C165.15 283.692 167.991 272.013 169.197 258.746L155.254 257.478ZM147.822 287.688C144.143 295.546 138.893 301.489 132.045 305.728L139.414 317.632C148.694 311.887 155.732 303.814 160.501 293.624L147.822 287.688ZM131.981 305.768C125.621 309.801 116.43 312.168 103.762 312.168V326.168C117.973 326.168 130.094 323.543 139.478 317.592L131.981 305.768ZM103.762 312.168C87.6661 312.168 74.3191 308.252 63.3752 300.728L55.4438 312.264C69.0759 321.636 85.2969 326.168 103.762 326.168V312.168ZM65.1778 310.462L68.3458 305.854L56.8092 297.922L53.6412 302.53L65.1778 310.462Z" fill="url(#paint2_linear)"/>
<path d="M326.567 235.84C326.567 241.76 325.447 247.36 323.207 252.64C320.967 257.92 317.927 262.64 314.087 266.8C310.247 270.8 305.687 274 300.407 276.4C295.287 278.8 289.847 280 284.087 280H205.127V109.6H280.487C286.407 109.6 291.767 110.88 296.567 113.44C301.367 116 305.447 119.36 308.807 123.52C312.167 127.52 314.727 132.16 316.487 137.44C318.407 142.56 319.367 147.76 319.367 153.04C319.367 161.68 317.127 169.6 312.647 176.8C308.327 184 302.407 189.28 294.887 192.64C299.687 194.08 304.007 196.24 307.847 199.12C311.847 202 315.207 205.36 317.927 209.2C320.807 213.04 322.967 217.28 324.407 221.92C325.847 226.4 326.567 231.04 326.567 235.84ZM321.767 235.84C321.767 230.72 320.807 225.84 318.887 221.2C317.127 216.4 314.647 212.16 311.447 208.48C308.247 204.8 304.407 201.92 299.927 199.84C295.607 197.6 290.887 196.48 285.767 196.48H209.927V275.2H284.087C289.367 275.2 294.247 274.08 298.727 271.84C303.367 269.6 307.367 266.64 310.727 262.96C314.247 259.28 316.967 255.12 318.887 250.48C320.807 245.68 321.767 240.8 321.767 235.84ZM209.927 114.4V191.68H279.047C284.327 191.68 289.127 190.56 293.447 188.32C297.767 186.08 301.447 183.12 304.487 179.44C307.687 175.76 310.167 171.68 311.927 167.2C313.687 162.56 314.567 157.84 314.567 153.04C314.567 147.92 313.687 143.04 311.927 138.4C310.327 133.76 308.007 129.68 304.967 126.16C302.087 122.48 298.487 119.6 294.167 117.52C290.007 115.44 285.447 114.4 280.487 114.4H209.927Z" fill="url(#paint3_linear)"/>
<path d="M323.207 252.64L316.763 249.906L323.207 252.64ZM314.087 266.8L319.137 271.648L319.184 271.598L319.231 271.548L314.087 266.8ZM300.407 276.4L297.511 270.027L297.473 270.044L297.436 270.062L300.407 276.4ZM205.127 280H198.127V287H205.127V280ZM205.127 109.6V102.6H198.127V109.6H205.127ZM296.567 113.44L293.273 119.616L293.273 119.616L296.567 113.44ZM308.807 123.52L303.362 127.918L303.404 127.971L303.447 128.022L308.807 123.52ZM316.487 137.44L309.846 139.654L309.887 139.777L309.933 139.898L316.487 137.44ZM312.647 176.8L306.704 173.102L306.674 173.15L306.645 173.199L312.647 176.8ZM294.887 192.64L292.032 186.249L274.835 193.933L292.876 199.345L294.887 192.64ZM307.847 199.12L303.647 204.72L303.702 204.761L303.757 204.801L307.847 199.12ZM317.927 209.2L312.215 213.246L312.27 213.324L312.327 213.4L317.927 209.2ZM324.407 221.92L317.722 223.995L317.732 224.028L317.743 224.062L324.407 221.92ZM318.887 221.2L312.315 223.61L312.364 223.744L312.419 223.876L318.887 221.2ZM311.447 208.48L316.729 203.887H316.729L311.447 208.48ZM299.927 199.84L296.705 206.054L296.841 206.125L296.979 206.189L299.927 199.84ZM209.927 196.48V189.48H202.927V196.48H209.927ZM209.927 275.2H202.927V282.2H209.927V275.2ZM298.727 271.84L295.684 265.536L295.64 265.557L295.597 265.579L298.727 271.84ZM310.727 262.96L305.669 258.121L305.613 258.18L305.558 258.24L310.727 262.96ZM318.887 250.48L325.355 253.156L325.371 253.118L325.387 253.08L318.887 250.48ZM209.927 114.4V107.4H202.927V114.4H209.927ZM209.927 191.68H202.927V198.68H209.927V191.68ZM293.447 188.32L290.225 182.106L293.447 188.32ZM304.487 179.44L299.205 174.847L299.147 174.914L299.09 174.982L304.487 179.44ZM311.927 167.2L318.442 169.76L318.458 169.721L318.472 169.683L311.927 167.2ZM311.927 138.4L305.31 140.682L305.344 140.783L305.382 140.883L311.927 138.4ZM304.967 126.16L299.455 130.474L299.559 130.607L299.669 130.735L304.967 126.16ZM294.167 117.52L291.037 123.781L291.083 123.804L291.13 123.827L294.167 117.52ZM319.567 235.84C319.567 240.852 318.624 245.519 316.763 249.906L329.651 255.374C332.27 249.201 333.567 242.668 333.567 235.84H319.567ZM316.763 249.906C314.833 254.455 312.23 258.491 308.944 262.052L319.231 271.548C323.624 266.789 327.101 261.385 329.651 255.374L316.763 249.906ZM309.037 261.952C305.84 265.283 302.02 267.977 297.511 270.027L303.304 282.773C309.354 280.023 314.654 276.317 319.137 271.648L309.037 261.952ZM297.436 270.062C293.264 272.018 288.84 273 284.087 273V287C290.854 287 297.311 285.582 303.378 282.738L297.436 270.062ZM284.087 273H205.127V287H284.087V273ZM212.127 280V109.6H198.127V280H212.127ZM205.127 116.6H280.487V102.6H205.127V116.6ZM280.487 116.6C285.362 116.6 289.575 117.644 293.273 119.616L299.861 107.264C293.96 104.116 287.452 102.6 280.487 102.6V116.6ZM293.273 119.616C297.259 121.742 300.603 124.502 303.362 127.918L314.253 119.122C310.292 114.218 305.476 110.258 299.861 107.264L293.273 119.616ZM303.447 128.022C306.204 131.304 308.347 135.155 309.846 139.654L323.128 135.226C321.107 129.165 318.131 123.736 314.167 119.018L303.447 128.022ZM309.933 139.898C311.569 144.26 312.367 148.629 312.367 153.04H326.367C326.367 146.891 325.246 140.86 323.041 134.982L309.933 139.898ZM312.367 153.04C312.367 160.399 310.48 167.034 306.704 173.102L318.591 180.498C323.775 172.166 326.367 162.961 326.367 153.04H312.367ZM306.645 173.199C303.048 179.194 298.215 183.486 292.032 186.249L297.743 199.031C306.6 195.074 313.607 188.806 318.65 180.401L306.645 173.199ZM292.876 199.345C296.922 200.559 300.495 202.356 303.647 204.72L312.047 193.52C307.52 190.124 302.452 187.601 296.899 185.935L292.876 199.345ZM303.757 204.801C307.16 207.251 309.963 210.066 312.215 213.246L323.639 205.154C320.452 200.654 316.535 196.749 311.937 193.439L303.757 204.801ZM312.327 213.4C314.72 216.591 316.516 220.111 317.722 223.995L331.093 219.845C329.418 214.449 326.894 209.489 323.527 205L312.327 213.4ZM317.743 224.062C318.956 227.836 319.567 231.752 319.567 235.84H333.567C333.567 230.328 332.738 224.964 331.071 219.778L317.743 224.062ZM328.767 235.84C328.767 229.82 327.633 224.029 325.355 218.524L312.419 223.876C313.981 227.651 314.767 231.62 314.767 235.84H328.767ZM325.459 218.79C323.42 213.229 320.516 208.241 316.729 203.887L306.165 213.073C308.779 216.079 310.834 219.571 312.315 223.61L325.459 218.79ZM316.729 203.887C312.875 199.454 308.236 195.98 302.875 193.491L296.979 206.189C300.578 207.86 303.619 210.146 306.165 213.073L316.729 203.887ZM303.149 193.626C297.782 190.842 291.948 189.48 285.767 189.48V203.48C289.826 203.48 293.433 204.358 296.705 206.054L303.149 193.626ZM285.767 189.48H209.927V203.48H285.767V189.48ZM202.927 196.48V275.2H216.927V196.48H202.927ZM209.927 282.2H284.087V268.2H209.927V282.2ZM284.087 282.2C290.393 282.2 296.353 280.853 301.858 278.101L295.597 265.579C292.141 267.307 288.341 268.2 284.087 268.2V282.2ZM301.77 278.144C307.186 275.53 311.915 272.041 315.897 267.68L305.558 258.24C302.82 261.239 299.549 263.67 295.684 265.536L301.77 278.144ZM315.786 267.799C319.897 263.501 323.099 258.61 325.355 253.156L312.419 247.804C310.836 251.63 308.598 255.059 305.669 258.121L315.786 267.799ZM325.387 253.08C327.623 247.488 328.767 241.728 328.767 235.84H314.767C314.767 239.872 313.991 243.872 312.388 247.88L325.387 253.08ZM202.927 114.4V191.68H216.927V114.4H202.927ZM209.927 198.68H279.047V184.68H209.927V198.68ZM279.047 198.68C285.351 198.68 291.271 197.334 296.669 194.534L290.225 182.106C286.984 183.786 283.303 184.68 279.047 184.68V198.68ZM296.669 194.534C301.808 191.87 306.233 188.318 309.884 183.898L299.09 174.982C296.662 177.922 293.726 180.29 290.225 182.106L296.669 194.534ZM309.769 184.033C313.486 179.759 316.387 174.993 318.442 169.76L305.412 164.64C303.948 168.367 301.888 171.761 299.205 174.847L309.769 184.033ZM318.472 169.683C320.523 164.277 321.567 158.717 321.567 153.04H307.567C307.567 156.963 306.852 160.843 305.382 164.717L318.472 169.683ZM321.567 153.04C321.567 147.099 320.543 141.376 318.472 135.917L305.382 140.883C306.832 144.704 307.567 148.741 307.567 153.04H321.567ZM318.545 136.118C316.671 130.684 313.918 125.815 310.265 121.585L299.669 130.735C302.096 133.545 303.983 136.836 305.31 140.682L318.545 136.118ZM310.48 121.846C306.921 117.298 302.465 113.746 297.204 111.213L291.13 123.827C294.509 125.454 297.254 127.662 299.455 130.474L310.48 121.846ZM297.298 111.259C292.102 108.661 286.46 107.4 280.487 107.4V121.4C284.434 121.4 287.913 122.219 291.037 123.781L297.298 111.259ZM280.487 107.4H209.927V121.4H280.487V107.4Z" fill="url(#paint4_linear)"/>
<defs>
<linearGradient id="paint0_linear" x1="200" y1="0" x2="200" y2="400" gradientUnits="userSpaceOnUse">
<stop stop-color="#8854BC"/>
<stop offset="1" stop-color="#0095CF"/>
</linearGradient>
<linearGradient id="paint1_linear" x1="122" y1="45" x2="122" y2="341" gradientUnits="userSpaceOnUse">
<stop stop-color="#8854BC"/>
<stop offset="1" stop-color="#0095CF"/>
</linearGradient>
<linearGradient id="paint2_linear" x1="122" y1="45" x2="122" y2="341" gradientUnits="userSpaceOnUse">
<stop stop-color="#8854BC"/>
<stop offset="1" stop-color="#0095CF"/>
</linearGradient>
<linearGradient id="paint3_linear" x1="260" y1="54" x2="260" y2="347" gradientUnits="userSpaceOnUse">
<stop stop-color="#8854BC"/>
<stop offset="1" stop-color="#0095CF"/>
</linearGradient>
<linearGradient id="paint4_linear" x1="260" y1="54" x2="260" y2="347" gradientUnits="userSpaceOnUse">
<stop stop-color="#8854BC"/>
<stop offset="1" stop-color="#0095CF"/>
</linearGradient>
</defs>
</svg>
